<svg xmlns="http://www.w3.org/2000/svg" width="64" height="64" viewBox="0 0 64 64">
<defs>
<linearGradient id="g" x1="8" y1="8" x2="56" y2="56" gradientUnits="userSpaceOnUse">
<stop stop-color="#4F46E5"/><stop offset="1" stop-color="#0EA5E9"/>
</linearGradient>
<filter id="s" x="-20%" y="-20%" width="140%" height="140%">
<feDropShadow dx="0" dy="6" stdDeviation="5" flood-color="#1E293B" flood-opacity=".18"/>
</filter>
</defs>
<rect x="8" y="7" width="48" height="48" rx="16" fill="url(#g)" filter="url(#s)"/>
<path d="M32 20v8M32 36v8M20 32h8M36 32h8M24 24l5 5M40 24l-5 5M24 40l5-5M40 40l-5-5M32 32m-5 0a5 5 0 1 0 10 0a5 5 0 1 0 -10 0" fill="none" stroke="white" stroke-width="4" stroke-linecap="round" stroke-linejoin="round"/>
</svg>