<svg xmlns="http://www.w3.org/2000/svg" width="64" height="64" viewBox="0 0 64 64">
<defs>
<linearGradient id="g" x1="8" y1="8" x2="56" y2="56" gradientUnits="userSpaceOnUse">
<stop stop-color="#0F172A"/><stop offset="1" stop-color="#2563EB"/>
</linearGradient>
<filter id="s" x="-20%" y="-20%" width="140%" height="140%">
<feDropShadow dx="0" dy="6" stdDeviation="5" flood-color="#1E293B" flood-opacity=".18"/>
</filter>
</defs>
<rect x="8" y="7" width="48" height="48" rx="16" fill="url(#g)" filter="url(#s)"/>
<path d="M22 22h20v20H22zM28 14v8M36 14v8M28 42v8M36 42v8M14 28h8M14 36h8M42 28h8M42 36h8M32 32m-5 0a5 5 0 1 0 10 0a5 5 0 1 0 -10 0" fill="none" stroke="white" stroke-width="4" stroke-linecap="round" stroke-linejoin="round"/>
</svg>